<?xml version="1.0" standalone="no"?><!DOCTYPE svg PUBLIC "-//W3C//DTD SVG 1.1//EN" "http://www.w3.org/Graphics/SVG/1.1/DTD/svg11.dtd"><svg t="1629111367602" class="icon" viewBox="0 0 1024 1024" version="1.1" xmlns="http://www.w3.org/2000/svg" p-id="10030" xmlns:xlink="http://www.w3.org/1999/xlink" width="200" height="200"><defs><style type="text/css"></style></defs><path d="M814.545455 116.363636a23.272727 23.272727 0 0 1 23.272727 23.272728v744.727272a23.272727 23.272727 0 0 1-23.272727 23.272728H209.454545a23.272727 23.272727 0 0 1-23.272727-23.272728V139.636364a23.272727 23.272727 0 0 1 23.272727-23.272728h605.09091m0-69.818181H209.454545a93.090909 93.090909 0 0 0-93.090909 93.090909v744.727272a93.090909 93.090909 0 0 0 93.090909 93.090909h605.09091a93.090909 93.090909 0 0 0 93.090909-93.090909V139.636364a93.090909 93.090909 0 0 0-93.090909-93.090909z" p-id="10031"></path><path d="M674.909091 325.818182H349.090909a34.909091 34.909091 0 0 1 0-69.818182h325.818182a34.909091 34.909091 0 0 1 0 69.818182zM674.909091 535.272727H349.090909a34.909091 34.909091 0 0 1 0-69.818182h325.818182a34.909091 34.909091 0 0 1 0 69.818182zM535.272727 744.727273h-186.181818a34.909091 34.909091 0 0 1 0-69.818182h186.181818a34.909091 34.909091 0 0 1 0 69.818182z" p-id="10032"></path></svg>